<?xml version="1.0" encoding="utf-8"?>
<!-- Generator: Adobe Illustrator 26.0.0, SVG Export Plug-In . SVG Version: 6.00 Build 0)  -->
<svg version="1.1" id="Camada_1" xmlns="http://www.w3.org/2000/svg" xmlns:xlink="http://www.w3.org/1999/xlink" x="0px" y="0px"
	 viewBox="0 0 306 408" style="enable-background:new 0 0 306 408;" xml:space="preserve">
<g>
	<path d="M234.2,167c-4,23.5-1.3,46.8,0.6,70c0.6,7.4,0.9,14.9,1.4,22.4c1.2,18.1,3.9,36.1,5.6,54.1c1,10.7,2.5,21.3,3,32
		c0.6,15.7,1.4,31.3,2.7,46.9c0.4,4.6-2.9,7.3-7.2,8.1c-9.6,1.6-19.2,3.5-28.8,4.3c-24.3,2-48.7,4.2-73.1,2.8
		c-24.4-1.4-48.9-2-73-6.9c-4.8-1-7.4-2.8-7.1-8.3c1-17,2.9-33.9,4-50.9c1-16.5,3.6-32.9,4.7-49.4c1.6-23.3,2.9-46.7,4.6-70
		c1.4-19.3-0.1-38.5,1.3-57.8c-3,0.2-3.7,1.5-3.8,3.4c-0.4,16.8-6.1,32.6-9.4,48.9c-4.4,21.9-8.9,43.9-13.3,65.8
		c-2,10.2-4.9,20.2-6,30.6c-0.4,3.8-3.8,5.5-7.8,5.5c-8.7,0-17-2.2-25.3-4.4c-5.6-1.5-8.1-5.1-7.1-11c3.1-18.2,6-36.5,9.2-54.7
		c3.9-22.3,7.8-44.6,12.2-66.8c4.8-24,7.6-48.4,12.4-72.4c3.8-18.8,6.9-37.6,12.7-55.9c3.7-11.6,10.5-19.3,22.3-24
		c14.6-5.8,28.6-13.2,43.4-18.7c1.3-0.5,2.8-1.1,3.5-2.2c5.1-7.6,12.8-8.3,20.9-8.3c11.8,0.1,23.6,0,35.5,0c6.4,0,11.8,1.9,16.3,6.6
		c6.6,6.8,16.1,7.8,24.2,11.8c9.4,4.6,19.2,8.2,28.4,13.1c13.8,7.3,18.8,21.2,21.8,35c5.8,26.4,11.4,52.8,14.8,79.7
		c2.3,17.8,6.4,35.5,9.2,53.2c3.8,24.2,9.4,48.1,13.3,72.2c1.8,11.2,3.7,22.3,5.6,33.5c0.6,3.5-0.6,6.1-3.9,7.5
		c-10.4,4.4-21.4,6.2-32.7,5.7c-5.1-0.2-4.8-5.1-5-7.9c-2.1-22.4-8.6-44-12.4-66c-4.3-24.8-11.1-49.1-14.7-74
		C236.9,168.8,236.4,167.7,234.2,167z"/>
</g>
</svg>
