<?xml version="1.0" encoding="utf-8"?>
<!-- Generator: Adobe Illustrator 26.0.0, SVG Export Plug-In . SVG Version: 6.00 Build 0)  -->
<svg version="1.1" id="Camada_1" xmlns="http://www.w3.org/2000/svg" xmlns:xlink="http://www.w3.org/1999/xlink" x="0px" y="0px"
	 viewBox="0 0 306 408" style="enable-background:new 0 0 306 408;" xml:space="preserve">
<g>
	<path d="M235,150.4c-1.3,4.4-2.3,8.7-2.2,13.4c0.2,13.5-0.5,27,0.2,40.5c1.1,22.6,3,45.2,5.2,67.8c1.2,12.1,2.6,24.2,3.4,36.3
		c1.3,20,3.8,39.9,5.4,59.9c0.7,9.2,0.2,18.5,0.2,27.7c0,4.2-4.3,4.7-6.6,5.1c-11.5,2-23.2,3.1-34.8,4.8
		c-15.2,2.2-30.8,2.3-45.9,2.2c-15.4-0.1-31,0.7-46.4-1.9c-7.6-1.3-15.5,0-23.3-1.6c-7.8-1.6-15.8-1.8-23.7-3.1
		c-6.9-1.1-9.7-6.6-7.4-17c2.5-10.9,0.9-21.9,2.4-32.9c2.8-20.1,3.5-40.4,5.7-60.6c0.7-6.7,1.5-13.5,1.8-20.3
		c0.7-17.3,1.1-34.7,3-52c2.5-22.2,0.1-44.3,1.5-67.1c-3.7,3.7-4.3,3.6-5.1,13.3c-1.7,20.5-8.5,39.8-12.7,59.7
		c-4.5,21.1-9.2,42-11.9,63.5c-1,8.3-2.8,16.4-4.2,24.6c-0.8,4.8-3.9,7-8.5,6.4c-9-1.2-18-2.5-26.6-5.7c-3.8-1.4-4.7-4.4-4.2-7.9
		c1.6-10.8,3.3-21.6,4.9-32.3c4.2-27.9,12.1-55.1,16.8-83C27.7,154.7,32,119,39.9,84c2.3-10.1,4.1-20.4,7.4-30.3
		c3.4-10.1,9.5-17.6,19.3-22.1c16-7.2,32.9-12.5,47.1-22.9c9.1-6.7,19.2-8.2,29.7-8.5c11.6-0.3,23.2-0.5,34.8,1.3
		c5.5,0.9,9.9,3.6,14.3,7c11.5,8.7,25,14,38.3,18.5c20.5,6.9,29.3,21.6,33.4,40.9c6.3,29.7,12.4,59.3,17.3,89.2
		c5.8,34.9,11.1,70,18.1,104.7c2.9,14.2,5.6,28.7,6.3,43.4c0.2,5.4-2.6,8.1-6.9,9.2c-7.9,1.9-15.9,3.5-24,4.3
		c-3.8,0.4-7.8-1-8.6-6.2c-4-27.3-10.3-54.1-15.4-81.1c-3.1-16.4-4.9-33.1-7.5-49.6c-1.5-9.3-2.2-18.9-5.5-27.9
		C237.4,152.5,237.2,151,235,150.4z"/>
</g>
</svg>
