<?xml version="1.0" encoding="utf-8"?>
<!-- Generator: Adobe Illustrator 26.0.0, SVG Export Plug-In . SVG Version: 6.00 Build 0)  -->
<svg version="1.1" id="Camada_1" xmlns="http://www.w3.org/2000/svg" xmlns:xlink="http://www.w3.org/1999/xlink" x="0px" y="0px"
	 viewBox="0 0 500 500" style="enable-background:new 0 0 500 500;" xml:space="preserve">
<g>
	<path d="M337.6,160.9c-6.9,16.5-10,33.4-12.8,50.4c-3.2,19.3-3.9,38.6-4.1,58.1c-0.1,9.4-1.5,18.9-0.7,28.4
		c2.1,26,2.3,52.2,4.4,78.2c1.2,13.9,1,28-1.7,41.8c-2.1,11.1-9.8,18-19.3,22.7c-22,10.9-45.2,14.1-69.6,11.7
		c-13.5-1.3-26.5-3.8-38.3-10.6c-8.9-5.1-15.6-12.1-19-22.1c-1.6-4.7-1.1-9.2-0.3-13.7c1.9-10.7,0.1-21.3-0.7-31.8
		c-1.5-19.8-2.2-39.4,0-59.2c2.2-20.3,3.3-40.8,1.7-61.3c-1.5-18.9-2.9-37.7-6.3-56.3c-1.8-9.7-4.5-19.3-8-28.6
		c-1.1-3-2.3-4.4-6.1-3c-9.6,3.5-18.2,8.7-26,15.3c-7.5,6.3-14.7,13-23.4,17.7c-1.3,0.7-2.8,1.7-3.4,2.9
		c-6,12.2-17.5,18.5-27.9,25.6c-12.3,8.3-23.8,17.5-35,27.1c-11.9,10.3-26.3,7.3-33.3-7C6.4,244,6.8,241.7,9,239
		c19.5-24,41.5-45.8,62.3-68.6c8.2-9,18.6-15,30.3-18.4c3.7-1.1,5.9-3.4,7.5-6.7c8.9-18.6,21.1-34.9,35.2-49.9
		c4.7-5,10.5-8.1,16.4-11.2C173,77.7,186,72.9,199.4,69c3.5-1,6.5-2.7,9.4-5.1c4.9-4.1,11.2-6.1,17.5-6.6
		c14.4-1.1,28.9-1.9,43.3-0.5c6.5,0.6,12.5,2.3,17.4,6.5c5.1,4.4,11.1,6.2,17.4,7.8c17.2,4.5,33.7,10.8,49,19.9
		c5.6,3.3,8.7,9,12.8,13.8c13.4,15.7,26.1,31.9,40.2,47c10.2,10.9,22,20.2,33.1,30.3c8.5,7.7,16.5,15.9,23.8,24.8
		c7.6,9.4,16.8,17.1,24.7,26.1c4.1,4.6,9.1,9.2,5.3,16.6c-3.3,6.3-12.4,11.2-20,10.6c-4.5-0.3-8.2-2.4-11.6-5.1
		c-12.5-10.2-25.3-19.8-39.8-27.1c-2.6-1.3-4.8-3.1-6.5-5.3c-3.2-4.1-7.1-7.4-11.3-10.3c-2.8-2-5.6-4.2-7.3-7.4
		c-2.2-4.1-5.4-6.9-9.6-9c-14.2-6.8-25.8-17.3-38.2-26.8C345.4,166.5,341.7,163.9,337.6,160.9z"/>
</g>
</svg>
