<?xml version="1.0" encoding="utf-8"?>
<!-- Generator: Adobe Illustrator 26.0.0, SVG Export Plug-In . SVG Version: 6.00 Build 0)  -->
<svg version="1.1" id="Camada_1" xmlns="http://www.w3.org/2000/svg" xmlns:xlink="http://www.w3.org/1999/xlink" x="0px" y="0px"
	 viewBox="0 0 500 500" style="enable-background:new 0 0 500 500;" xml:space="preserve">
<g>
	<path d="M170.1,170.4c-8.5,7.1-16.4,13.3-24,20c-9.6,8.5-20.7,15-30.9,22.7c-0.8,0.6-1.9,1-2.4,1.8c-6.6,10.4-18,16.2-25.3,26
		c-4.2,5.7-10.4,8.9-16.3,12.1c-12.8,7-23.8,16.3-34.6,25.9c-7.5,6.6-9.6,6.7-16.5-0.4c-2.7-2.7-4.7-6-7.3-8.8
		c-3.7-4-3-7.7-0.1-11.6c6.8-9.3,14.7-17.7,22.8-25.7c4.5-4.5,8-9.7,12.4-14.3c6.3-6.4,12.3-13.1,20.8-16.9c1-0.4,2.3-1.2,2.6-2.2
		c3.5-9.8,12.5-13.9,19.8-19.8c4.9-4,8.9-8.6,13.2-13.2c9.1-10.1,16.2-22.1,27.6-30c1.2-0.8,2.4-1.9,3.1-3.2
		c9.2-18.8,24.9-29.7,44.1-36.5c10-3.5,20-7,30-10.5c2.2-0.8,4.5-1.4,6.4-2.7c14.3-9.9,30.1-10,46.4-7.5c9.9,1.5,19.3,3.6,27.9,9.5
		c5,3.4,11.8,4,17.7,6.2c9.9,3.7,19.3,8.6,28.8,13.4c9.2,4.7,14.9,13.1,21.7,20.3c12.1,12.8,22.2,27.4,35,39.6
		c8.3,7.9,18.1,14.1,26.8,21.5c4.3,3.7,8.7,7.4,12.2,11.7c11.6,14.2,24.5,27.1,37.9,39.6c6.6,6.1,12.4,13,18.8,19.3
		c3.5,3.4,4.2,7.1,2.1,11.3c-3.3,6.6-7.4,12.6-13.5,17c-3.5,2.5-6.7,2.7-10.3-0.4c-11.3-9.9-22.3-20-34.2-29.1
		c-10.2-7.8-21.2-14.8-31.2-23c-1.9-1.6-4-3.3-5-5.4c-3.1-6.5-8.3-10.4-14.2-14c-7.8-4.9-13.7-12.1-20.6-18
		c-8.9-7.7-18.1-14.9-29.4-19.2c-3.7-1.4-5.2-0.3-6.2,2.9c-4.8,15.8-8.2,31.7-8.4,48.3c-0.2,14-1,28-0.9,42
		c0.1,14.5,2.1,28.8,3.5,43.2c1.8,16.9,1.2,33.9,0.1,50.9c-0.8,12-1.6,23.9-1,35.9c0.4,7.2-0.3,14.3-0.9,21.4
		c-0.5,5.7-3.4,10-8.6,12.5c-15.7,7.7-31.9,13.1-49.8,11.4c-13-1.3-25.9,1.2-38.9-0.1c-10.1-1-19.4-4.3-27.9-9.9
		c-10.4-6.7-15.3-16.5-15.2-28.6c0.2-22.5,0.8-44.9,2.2-67.4c0.6-8.6,1.5-17.3,1.4-25.9c-0.2-24.8,1.4-49.6-0.9-74.4
		c-1.5-15.8-4.2-31.5-7.4-47.1C172.3,184.4,171.4,177.9,170.1,170.4z"/>
</g>
</svg>
