<?xml version="1.0" encoding="utf-8"?>
<!-- Generator: Adobe Illustrator 26.0.0, SVG Export Plug-In . SVG Version: 6.00 Build 0)  -->
<svg version="1.1" id="Camada_1" xmlns="http://www.w3.org/2000/svg" xmlns:xlink="http://www.w3.org/1999/xlink" x="0px" y="0px"
	 viewBox="0 0 612 408" style="enable-background:new 0 0 612 408;" xml:space="preserve">
<g>
	<path d="M391.8,177.1c-3.7,3.1-1.9,7.4-2.8,11.1c-3.6,14.2-6.4,28.6-9.3,42.9c-3.4,16.6-6.7,33.1-9.9,49.7c-1,5.5-5,5.2-8.7,4.8
		c-4.8-0.6-9.6-1.5-14.3-2.8c-4.5-1.3-6.3-4-5.5-8.4c2.2-12.8,3.9-25.7,6.6-38.5c3.2-15.5,5.4-31.1,8.5-46.6
		c3.3-16.9,5.3-34.1,8.7-51c2.7-13.4,4.9-26.9,9.1-39.9c2.6-8,7.4-13.2,15.5-16.5c10.3-4.1,20.1-9.3,30.6-13.2c1-0.4,2.2-1,2.8-1.9
		c3.3-4.9,8.1-5.5,13.3-5.5c8.7,0,17.3,0,26,0c4.5,0,8.3,1.3,11.5,4.6c4.8,4.9,11.6,5.7,17.5,8.4c6.7,3.1,13.6,5.8,20,9.4
		c9.4,5.2,12.9,14.8,15,24.4c4,18.6,8,37.2,10.4,56.2c1.6,12.6,4.5,25,6.5,37.5c2.7,17.1,6.6,33.9,9.4,50.9
		c1.3,7.9,2.6,15.7,3.9,23.6c0.4,2.7-0.6,4.5-3.1,5.5c-7.2,2.9-14.8,4.1-22.6,3.9c-3.6-0.1-3.4-3.6-3.6-5.6
		c-1.2-15.5-5.8-30.4-8.4-45.6c-3.1-17.9-8.1-35.5-10.8-53.5c-0.1-0.9-0.7-1.5-1.5-1.8c-1.6,4.4-2.9,24.2-1.6,28.6
		c0.6,1.8,0.6,3.6,0.6,5.4c0.4,17,1.8,33.8,3.9,50.6c1.4,11.4,1.8,22.9,3.2,34.3c1.7,13.2,1.1,26.6,2.7,39.9c0.4,3.2-2,5.2-5,5.7
		c-6.7,1.2-13.5,2.5-20.3,3c-17.1,1.4-34.3,3-51.5,2c-17.2-1-34.4-1.4-51.4-4.8c-3.8-0.8-5.3-2.4-5-6.4c0.8-11.8,2-23.6,2.8-35.4
		c0.8-11.5,2.5-22.9,3.3-34.3c1.2-16.6,2.1-33.2,3.2-49.8C392.4,204.2,391.5,190.7,391.8,177.1z"/>
	<path d="M107.3,167.7c-3.9,2.9-3,6.9-3.3,9.9c-1.3,14.1-5.9,27.4-8.8,41c-3.2,15-6.5,29.9-8.5,45.1c-0.8,6-1.9,11.9-3,17.8
		c-0.6,3.3-3.1,4.7-6.2,4.2c-5.3-1-10.7-1.3-15.8-3.1c-5.4-1.9-6.3-3.6-5.4-9.3c4-23.1,8.4-46.1,13.6-68.9
		c3.2-13.8,4.1-28.1,6.4-42.1c2.3-13.8,5.2-27.5,7.5-41.3c1.6-9.3,3.4-18.6,7.6-27.2c2-4.1,5.2-7.3,9.3-9.3
		c10.6-5.1,21.6-9.2,31.9-14.9c3.7-2,6.4-5.5,10.9-6.5c10.5-2.2,20.9-1.7,31.4-1.3c8.6,0.3,14.4,5.1,21.2,9.1
		c7.1,4.2,14.8,7.8,22.7,10.3c11.9,3.8,18,12.4,20.6,23.5c5.3,22.2,9.5,44.5,13.2,67c4,24.6,7.7,49.2,12.6,73.7
		c2,10,3.9,20.2,4.4,30.6c0.2,4-1.8,5.9-5.1,6.7c-5.4,1.3-10.8,2.4-16.3,3c-2.8,0.3-5.7-0.7-6.2-4.7c-1.6-13.6-5.1-26.9-7.5-40.3
		c-2.3-12.3-4.1-24.8-6.5-37.1c-2.2-11.2-2-22.8-5.8-33.7c-0.4-1.1-0.4-2.3-2.1-2.8c-1,3.2-1.6,6.4-1.6,9.8
		c0.1,10.7-0.6,21.4,0.2,32c1.1,14.6,1.9,29.1,3.6,43.7c0.9,8.3,1.8,16.7,2.4,25c1,14.4,2.7,28.8,3.8,43.2c0.5,6.3,0.1,12.7,0.1,19
		c0,3.2-3.1,3.5-4.9,3.8c-8,1.4-16.3,1.9-24.3,3.3c-10.5,1.8-21.1,1.4-31.6,1.4c-10.7,0-21.7,0.5-32.4-1.3c-5.5-0.9-11.2,0-16.8-1.2
		c-5.4-1.1-11-1.3-16.5-2.2c-4.5-0.8-6.4-4.7-4.8-11.7c1.7-7.3,0.7-14.7,1.6-22.1c1.8-14.6,2.4-29.4,4.1-44.1
		c1.1-9.8,1.3-19.7,2.1-29.6c1.7-21,2.4-42,2-63.1C107.3,171.4,107.3,169.8,107.3,167.7z"/>
</g>
</svg>
