<?xml version="1.0" encoding="utf-8"?>
<!-- Generator: Adobe Illustrator 26.0.0, SVG Export Plug-In . SVG Version: 6.00 Build 0)  -->
<svg version="1.1" id="Camada_1" xmlns="http://www.w3.org/2000/svg" xmlns:xlink="http://www.w3.org/1999/xlink" x="0px" y="0px"
	 viewBox="0 0 500 500" style="enable-background:new 0 0 500 500;" xml:space="preserve">
<g>
	<path d="M318,234c0.9,5.6-1.1,12.4-1,19.3c0,11.2,1.2,22.3,1.8,33.5c0.4,7.1,0.2,14.2,1.2,21.2c1.7,12.5,2.8,25,1.9,37.5
		c-1.6,21.8-1.7,43.7-2.1,65.5c-0.1,6.7,0.6,14.5-6.1,19.9c-2.9,2.3-6.1,3.5-9.3,4.9c-15.3,7.2-31.5,10.5-48.3,9
		c-10.7-1-21.3,0.9-31.9,0c-13.9-1.3-26.8-5.4-37.2-15.5c-5.9-5.7-8.6-13-8.8-20.9c-0.5-21.9,0.2-43.9,1.4-65.7
		c0.8-15.2,0.3-30.4,1.7-45.5c1.3-14.1,0.9-28.2,0.7-42.2c-0.2-12-1.9-24-3.5-36c-2-14.5-6-28.5-7.3-43.1c-0.3-3.6-2.2-4.3-5.3-2.1
		c-13.5,9.7-27.9,18-40.5,29c-1.5,1.3-3.8,2-5.6,3.1c-3.4,2-5.6-0.1-8.7-1.7c-8.8-4.5-15.3-11.3-21.1-18.9
		c-4.3-5.7-3.9-7.9,0.7-13.4c8.6-10.4,19.1-18.9,28.9-28.1c6.9-6.5,14.8-11.8,20.8-19.3c3.3-4.1,8.4-6.9,11.3-10.9
		c9.2-12.9,23.5-15.9,36.8-21.1c12.5-4.9,25.1-9.3,37.3-15.1c10.3-4.9,21.7-4.2,32.8-2.6c4.5,0.6,9,1.4,13.4,2
		c4.3,0.6,8.2,1.9,11.6,4.4c7.8,5.9,17.5,7,26.2,10.6c15.2,6.3,29.9,12.8,39.8,27c4.7,6.8,12,11.1,18.3,16.3
		c9.9,8.2,18.1,18.1,27.6,26.6c3.3,3,6.7,5.8,9.8,9c5.8,5.9,6.3,6.7,2.8,13.4c-5,9.5-11.4,18.1-20.6,24.1c-2.3,1.5-4.7,2.7-7.2,3.8
		c-1.7,0.7-2.6-0.9-3.9-1.8c-10.1-6.5-18.5-15-27.9-22.3c-5.9-4.6-11.9-9.1-17.7-13.8c-1.9-1.5-1.6-0.8-2.4,1
		c-5.2,12.6-8,25.7-9.4,39.3C318.3,220.4,317.9,226.5,318,234z"/>
</g>
</svg>
