<?xml version="1.0" encoding="utf-8"?>
<!-- Generator: Adobe Illustrator 26.0.0, SVG Export Plug-In . SVG Version: 6.00 Build 0)  -->
<svg version="1.1" id="Camada_1" xmlns="http://www.w3.org/2000/svg" xmlns:xlink="http://www.w3.org/1999/xlink" x="0px" y="0px"
	 viewBox="0 0 500 500" style="enable-background:new 0 0 500 500;" xml:space="preserve">
<g>
	<path d="M338.4,157.9c-6.9,18.4-11.2,37.2-13.9,56.5c-2.2,15.9-4.3,31.6-3.7,47.7c0.3,8.8-1.3,17.5-1.1,26.3
		c0.5,17.7,1.7,35.4,2.4,53c0.8,20.6,3.4,41.2,2.6,61.9c-0.5,12.1-2.2,24-13,32c-8.9,6.6-19.2,10.5-29.8,13.3
		c-6,1.6-12.1,2.6-18.2,3.5c-3.8,0.6-3.4-0.6-3.4-2.9c0-13.8,0-27.6,0-41.5c0-1.2,0-2.3,0-3.5c0-1-0.6-1.4-1.5-1.5
		c-1.2-0.1-1.9,0.3-1.9,1.6c0,1.7,0,3.3,0,5c0,13.2,0,26.3,0,39.5c0,1.9,0.6,3.9-2.8,3.9c-17,0.3-33.9-0.5-49.9-7.1
		c-13.4-5.5-24-13.8-28.2-28.6c-1.4-5,0.2-9.6,0.7-14.1c1.2-9.3-0.5-18.4-0.9-27.6c-0.2-4.8-0.6-9.8-1.1-14.7
		c-1.4-13.1-1.2-26.2,0.5-39.4c1.5-11.7,2.2-23.7,2.3-35.6c0.1-11.1,0.5-22.2-0.1-33.4c-0.7-13.1-2.5-26.1-3.9-39.2
		c-1.5-15-5.2-29.5-10.1-43.6c-1.9-5.4-3.3-5.9-7.6-2.7c-9.3,7.1-18.8,13.9-27.6,21.5c-4.7,4.1-9.7,7.5-15,10.6
		c-4.5,2.7-9.3,2.6-13.4,1.4c-9.7-3-18.8-7.3-24.9-16.4c-4.8-7.2-4.7-9.9,0.5-16.2c8.1-9.9,18.3-17.8,25.7-28.6
		c5.9-8.7,15.7-14.7,23.2-22.4c8.2-8.5,17.4-15.9,24.9-25.1c4.5-5.5,12.2-8.1,18.9-11.1c11.1-4.8,22.4-9,34-12.2
		c5.4-1.5,8.8-6.3,14.2-8.3c7-2.6,14.1-3,21.2-3.5c8-0.6,16-0.1,24-0.1c10.6,0,20.4,2,28.7,9.4c4.7,4.3,11.3,4.7,17.2,6.3
		c14.6,3.9,28.5,9.4,41.8,16.5c4.9,2.6,9.2,6.9,12.8,10.9c6.3,7.1,14.2,12.5,20.3,19.6c6.3,7.4,13,14.5,20.2,21.1
		c8.5,7.7,17.5,14.8,24.9,23.7c7,8.4,8.2,13.8-2.2,23c-5.8,5.1-13.2,8.1-20.9,8.7c-6.9,0.5-13.6-2.5-19-6.6
		c-11.2-8.4-22.9-15.8-34.5-23.7C346.6,162.6,341.8,161.3,338.4,157.9z"/>
</g>
</svg>
